<?xml version="1.0" encoding="UTF-8" standalone="no"?>
<!-- Created with Inkscape (http://www.inkscape.org/) -->

<svg
   width="32"
   height="32"
   viewBox="0 0 32 32"
   version="1.1"
   id="svg5"
   inkscape:version="1.1.2 (0a00cf5339, 2022-02-04)"
   sodipodi:docname="favicon.svg"
   inkscape:export-filename="/home/ein/repo/nobiruwa.github/gistish.git/http-server/favicon.png"
   inkscape:export-xdpi="96"
   inkscape:export-ydpi="96"
   xmlns:inkscape="http://www.inkscape.org/namespaces/inkscape"
   xmlns:sodipodi="http://sodipodi.sourceforge.net/DTD/sodipodi-0.dtd"
   xmlns="http://www.w3.org/2000/svg"
   xmlns:svg="http://www.w3.org/2000/svg">
  <sodipodi:namedview
     id="namedview7"
     pagecolor="#ffffff"
     bordercolor="#666666"
     borderopacity="1.0"
     inkscape:pageshadow="2"
     inkscape:pageopacity="0.0"
     inkscape:pagecheckerboard="0"
     inkscape:document-units="px"
     showgrid="false"
     inkscape:zoom="13.625"
     inkscape:cx="26.93578"
     inkscape:cy="15.926605"
     inkscape:window-width="1918"
     inkscape:window-height="1060"
     inkscape:window-x="1600"
     inkscape:window-y="18"
     inkscape:window-maximized="1"
     inkscape:current-layer="text11385" />
  <defs
     id="defs2">
    <inkscape:path-effect
       effect="skeletal"
       id="path-effect38418"
       is_visible="true"
       lpeversion="1"
       pattern="M 0,18.867925 C 0,8.4528302 8.4528302,0 18.867925,0 c 10.415094,0 18.867924,8.4528302 18.867924,18.867925 0,10.415094 -8.45283,18.867924 -18.867924,18.867924 C 8.4528302,37.735849 0,29.283019 0,18.867925 Z"
       copytype="single_stretched"
       prop_scale="1"
       scale_y_rel="false"
       spacing="0"
       normal_offset="0"
       tang_offset="0"
       prop_units="false"
       vertical_pattern="false"
       hide_knot="false"
       fuse_tolerance="0" />
  </defs>
  <g
     inkscape:label="Layer 1"
     inkscape:groupmode="layer"
     id="layer1">
    <g
       aria-label="ã®"
       transform="scale(0.94446381,1.0588018)"
       id="text11385"
       style="font-size:33.2368px;line-height:1.25;font-family:'VL PGothic';-inkscape-font-specification:'VL PGothic';white-space:pre;stroke-width:0.83092">
      <path
         id="path38492"
         d="m 15.066862,6.8719951 c 0.403651,0.8914465 0.655038,1.8449615 0.800169,2.7967065 0.10011,0.6565304 0.133084,1.4269034 0.173892,2.0885284 0.03165,1.383307 0.01428,2.770623 -0.156181,4.146833 -0.0752,0.476224 -0.180589,0.958445 -0.375671,1.409054 -0.08265,0.1909 -0.155656,0.302951 -0.261482,0.483213 -0.148239,0.292795 -0.359346,0.551704 -0.566752,0.81199 -0.21392,0.268457 -0.284757,0.374308 -0.533893,0.627299 -0.111809,0.113539 -0.232921,0.219512 -0.349382,0.329267 -0.369565,0.355145 -0.787879,0.664726 -1.189554,0.989483 -0.129596,0.104778 -0.253931,0.214723 -0.385263,0.317766 -0.331883,0.260395 -0.423143,0.312433 -0.771842,0.546185 -0.410111,0.255031 -0.839588,0.521551 -1.323526,0.65429 -0.2292958,0.06289 -0.3737209,0.0698 -0.612617,0.0972 -1.6266145,0.116155 -1.6323176,0.108981 3.772569,-0.0059 0.166753,-0.0036 -0.333357,-0.02073 -0.49775,-0.04592 -0.402815,-0.06171 -0.69846,-0.145821 -1.072403,-0.292503 -0.167677,-0.06572 -0.327131,-0.147051 -0.490697,-0.2206 C 10.513826,21.24306 9.8902919,20.741247 9.4520846,20.119182 9.3763448,20.011664 9.3130617,19.897553 9.2435503,19.786738 9.0776,19.459437 8.9372544,19.119653 8.8535716,18.767426 c -0.084955,-0.357582 -0.11285,-0.72693 -0.1463871,-1.090254 -0.074151,-0.868623 -0.059041,-1.740524 -0.0722,-2.610945 0.046271,-0.663929 0.1754716,-1.325905 0.3908068,-1.963373 0.1341675,-0.397183 0.2169968,-0.543086 0.3979091,-0.924286 0.3391894,-0.642773 0.7496776,-1.25912 1.2387916,-1.820554 0.287324,-0.329807 0.376598,-0.4047304 0.686614,-0.7061294 0.400566,-0.359246 0.796182,-0.734016 1.277689,-1.009487 0.25996,-0.148724 0.506548,-0.250012 0.782386,-0.37271 0.649381,-0.284088 1.339514,-0.474944 2.026192,-0.670127 0.371967,-0.105728 0.741578,-0.217945 1.11287,-0.325539 0.841161,-0.234341 1.696088,-0.4393593 2.567512,-0.5624059 0.584974,-0.082603 0.833393,-0.094482 1.426227,-0.1436539 0.247026,-0.014006 0.49371,-0.03418 0.741077,-0.042019 0.252586,-0.00803 1.010949,-0.00689 0.75821,-0.00548 -1.163132,0.00652 -2.326878,-0.013742 -3.489386,0.020863 -0.241187,0.00718 0.481486,0.032962 0.720673,0.061541 0.427974,0.051133 0.838034,0.1393831 1.258915,0.2218404 0.773453,0.1805341 1.560499,0.3961861 2.21743,0.8180061 0.104038,0.0668 0.199019,0.144159 0.29853,0.216238 0.610635,0.52627 0.983248,1.221681 1.309804,1.910146 0.326199,0.7776617 0.584021,1.5761937 0.828842,2.3766927 0.241808,0.732224 0.418068,1.477668 0.514586,2.235825 0.112388,0.822789 0.0984,1.652106 0.08931,2.479068 0.02429,0.749684 0.0798,1.513284 -0.05877,2.257788 -0.02758,0.148176 -0.07402,0.293064 -0.111024,0.439596 -0.186981,0.777648 -0.50522,1.519579 -0.805746,2.265646 -0.161512,0.444466 -0.374738,0.871162 -0.714364,1.229524 -0.200403,0.170003 -0.447559,0.279801 -0.697643,0.378521 0,0 4.739939,0.456898 4.739939,0.456898 v 0 c 0.27706,-0.155511 0.541016,-0.324062 0.728904,-0.569244 0.04305,-0.06081 0.09096,-0.119094 0.129142,-0.182445 0.223112,-0.370249 0.318831,-0.793719 0.474649,-1.186639 0.23208,-0.768336 0.432123,-1.544224 0.655144,-2.314638 0.09029,-0.481241 0.171286,-0.960695 0.203803,-1.448433 0.02274,-0.341182 0.01393,-0.561461 0.02378,-0.901352 0.0041,-0.142777 0.01218,-0.285441 0.01826,-0.428162 -0.02268,-0.840669 -0.05378,-1.681488 -0.107191,-2.521051 -0.09462,-0.782105 -0.206398,-1.563895 -0.503087,-2.309757 C 29.472402,11.223965 29.216864,10.410626 28.909443,9.6117143 28.796058,9.3547983 28.67956,9.0785993 28.547791,8.8283233 28.484441,8.7080013 28.412439,8.5914583 28.34398,8.4733853 28.238015,8.2906223 28.051876,7.9588783 27.91448,7.7905343 27.83217,7.6896883 27.73012,7.6029293 27.637938,7.5091273 27.531057,7.4202086 27.430952,7.3243246 27.317289,7.2423626 26.61957,6.7392403 25.739591,6.5031867 24.889568,6.2955821 24.463089,6.2106276 23.97444,6.1080137 23.544421,6.0445572 c -0.24655,-0.036383 -0.49296,-0.085536 -0.742798,-0.090545 -2.165407,-0.04341 -4.364265,-0.1082938 -6.533448,0.050231 -0.567526,0.057296 -0.909952,0.083965 -1.473905,0.1728378 -0.897639,0.1414589 -1.771617,0.3803225 -2.648009,0.5988591 -1.107582,0.310226 -2.2228234,0.614781 -3.2769561,1.053536 -0.4112945,0.206431 -0.8124654,0.416071 -1.1724932,0.691535 -0.327219,0.250362 -0.5872817,0.555997 -0.863631,0.84848 C 6.1165318,10.1981 5.4964608,11.091977 4.9612105,12.023023 4.8887155,12.184408 4.809605,12.343553 4.7437257,12.50718 4.5956159,12.875045 4.5242366,13.129196 4.427025,13.509688 c -0.072707,0.284576 -0.1787074,0.748482 -0.2226702,1.03762 -0.025661,0.168769 -0.0372,0.339007 -0.0558,0.508511 -0.011903,0.164261 -0.029021,0.328287 -0.03571,0.492784 -0.00604,0.148419 -0.00121,0.297034 -0.00245,0.445547 -0.00476,0.570682 -0.00618,1.141482 0.00586,1.712111 0.05315,0.783409 0.160052,1.575871 0.5606229,2.28651 0.2055162,0.334701 0.244185,0.424526 0.5026969,0.734889 0.4355314,0.522888 0.9954967,0.945701 1.5999718,1.30631 0.4855252,0.247052 0.9772852,0.501839 1.5141509,0.652769 0.1503935,0.04228 0.303525,0.0909 0.4611728,0.09399 4.5864769,0.08998 3.3950569,0.239795 5.3810129,-0.04086 0.119539,-0.02796 0.241503,-0.04868 0.358619,-0.08386 0.56889,-0.170888 1.02204,-0.553135 1.485905,-0.875005 0.79734,-0.607497 1.550178,-1.257962 2.303795,-1.907861 0.130013,-0.11755 0.263392,-0.232211 0.390036,-0.352652 0.487012,-0.463156 0.913013,-0.977649 1.256381,-1.53411 0.04791,-0.09301 0.10335,-0.183223 0.143733,-0.279034 0.239304,-0.567699 0.256468,-1.192611 0.302523,-1.789011 -0.02408,-0.566458 -0.04694,-1.131689 -0.101877,-1.696686 -0.07992,-0.821886 -0.08263,-0.683082 -0.186315,-1.544561 -0.03784,-0.31445 -0.07057,-0.629375 -0.105848,-0.944063 -0.03808,-0.41055 -0.161845,-1.693999 -0.180016,-2.0973554 -0.0156,-0.346157 -0.0116,-0.692833 -0.01059,-1.039269 0.0018,-0.58666 0.0065,-1.179099 0.117471,-1.7592648 0,0 -4.842864,0.034851 -4.842864,0.034851 z" />
    </g>
  </g>
</svg>
